<mxfile host="app.diagrams.net" modified="2023-03-08T09:56:15.093Z" agent="5.0 (Windows NT 10.0; Win64; x64) AppleWebKit/537.36 (KHTML, like Gecko) Chrome/110.0.0.0 Safari/537.36" etag="gdXEtB2mXkF29DmaJ0ou" version="20.8.23" type="github">
  <diagram id="6a731a19-8d31-9384-78a2-239565b7b9f0" name="Page-1">
    <mxGraphModel dx="2603" dy="764" grid="1" gridSize="10" guides="1" tooltips="1" connect="1" arrows="1" fold="1" page="1" pageScale="1" pageWidth="1169" pageHeight="827" background="none" math="0" shadow="0">
      <root>
        <mxCell id="0" />
        <mxCell id="1" parent="0" />
        <mxCell id="H4zYBng8b11THzJkt93y-1785" style="edgeStyle=orthogonalEdgeStyle;rounded=0;orthogonalLoop=1;jettySize=auto;html=1;exitX=1;exitY=0.5;exitDx=0;exitDy=0;exitPerimeter=0;entryX=0;entryY=0.5;entryDx=0;entryDy=0;entryPerimeter=0;" edge="1" parent="1" source="H4zYBng8b11THzJkt93y-1779" target="H4zYBng8b11THzJkt93y-1784">
          <mxGeometry relative="1" as="geometry" />
        </mxCell>
        <mxCell id="H4zYBng8b11THzJkt93y-1808" style="edgeStyle=orthogonalEdgeStyle;rounded=0;orthogonalLoop=1;jettySize=auto;html=1;exitX=0;exitY=0.5;exitDx=0;exitDy=0;exitPerimeter=0;entryX=1;entryY=0.5;entryDx=0;entryDy=0;" edge="1" parent="1" source="H4zYBng8b11THzJkt93y-1779" target="H4zYBng8b11THzJkt93y-1801">
          <mxGeometry relative="1" as="geometry" />
        </mxCell>
        <mxCell id="H4zYBng8b11THzJkt93y-1779" value="master1" style="shape=cylinder3;whiteSpace=wrap;html=1;boundedLbl=1;backgroundOutline=1;size=15;" vertex="1" parent="1">
          <mxGeometry x="110" y="180" width="60" height="80" as="geometry" />
        </mxCell>
        <mxCell id="H4zYBng8b11THzJkt93y-1788" value="" style="edgeStyle=orthogonalEdgeStyle;rounded=0;orthogonalLoop=1;jettySize=auto;html=1;" edge="1" parent="1" source="H4zYBng8b11THzJkt93y-1780" target="H4zYBng8b11THzJkt93y-1787">
          <mxGeometry relative="1" as="geometry" />
        </mxCell>
        <mxCell id="H4zYBng8b11THzJkt93y-1807" style="edgeStyle=orthogonalEdgeStyle;rounded=0;orthogonalLoop=1;jettySize=auto;html=1;exitX=0;exitY=0.5;exitDx=0;exitDy=0;exitPerimeter=0;entryX=1.008;entryY=0.35;entryDx=0;entryDy=0;entryPerimeter=0;" edge="1" parent="1" source="H4zYBng8b11THzJkt93y-1780" target="H4zYBng8b11THzJkt93y-1803">
          <mxGeometry relative="1" as="geometry" />
        </mxCell>
        <mxCell id="H4zYBng8b11THzJkt93y-1780" value="master2" style="shape=cylinder3;whiteSpace=wrap;html=1;boundedLbl=1;backgroundOutline=1;size=15;" vertex="1" parent="1">
          <mxGeometry x="110" y="310" width="60" height="80" as="geometry" />
        </mxCell>
        <mxCell id="H4zYBng8b11THzJkt93y-1792" style="edgeStyle=orthogonalEdgeStyle;rounded=0;orthogonalLoop=1;jettySize=auto;html=1;exitX=1;exitY=0.5;exitDx=0;exitDy=0;exitPerimeter=0;entryX=0;entryY=0.5;entryDx=0;entryDy=0;entryPerimeter=0;" edge="1" parent="1" source="H4zYBng8b11THzJkt93y-1781" target="H4zYBng8b11THzJkt93y-1791">
          <mxGeometry relative="1" as="geometry" />
        </mxCell>
        <mxCell id="H4zYBng8b11THzJkt93y-1800" style="edgeStyle=orthogonalEdgeStyle;rounded=0;orthogonalLoop=1;jettySize=auto;html=1;exitX=0;exitY=0.5;exitDx=0;exitDy=0;exitPerimeter=0;" edge="1" parent="1" source="H4zYBng8b11THzJkt93y-1781" target="H4zYBng8b11THzJkt93y-1799">
          <mxGeometry relative="1" as="geometry" />
        </mxCell>
        <mxCell id="H4zYBng8b11THzJkt93y-1781" value="master3" style="shape=cylinder3;whiteSpace=wrap;html=1;boundedLbl=1;backgroundOutline=1;size=15;" vertex="1" parent="1">
          <mxGeometry x="110" y="430" width="60" height="80" as="geometry" />
        </mxCell>
        <mxCell id="H4zYBng8b11THzJkt93y-1795" value="" style="edgeStyle=orthogonalEdgeStyle;rounded=0;orthogonalLoop=1;jettySize=auto;html=1;" edge="1" parent="1" source="H4zYBng8b11THzJkt93y-1782" target="H4zYBng8b11THzJkt93y-1794">
          <mxGeometry relative="1" as="geometry" />
        </mxCell>
        <mxCell id="H4zYBng8b11THzJkt93y-1806" style="edgeStyle=orthogonalEdgeStyle;rounded=0;orthogonalLoop=1;jettySize=auto;html=1;exitX=0;exitY=0.5;exitDx=0;exitDy=0;exitPerimeter=0;entryX=1;entryY=0.375;entryDx=0;entryDy=0;entryPerimeter=0;" edge="1" parent="1" source="H4zYBng8b11THzJkt93y-1782" target="H4zYBng8b11THzJkt93y-1802">
          <mxGeometry relative="1" as="geometry" />
        </mxCell>
        <mxCell id="H4zYBng8b11THzJkt93y-1782" value="master4" style="shape=cylinder3;whiteSpace=wrap;html=1;boundedLbl=1;backgroundOutline=1;size=15;" vertex="1" parent="1">
          <mxGeometry x="110" y="550" width="60" height="80" as="geometry" />
        </mxCell>
        <mxCell id="H4zYBng8b11THzJkt93y-1798" style="edgeStyle=orthogonalEdgeStyle;rounded=0;orthogonalLoop=1;jettySize=auto;html=1;exitX=1;exitY=0.5;exitDx=0;exitDy=0;exitPerimeter=0;" edge="1" parent="1" source="H4zYBng8b11THzJkt93y-1783" target="H4zYBng8b11THzJkt93y-1797">
          <mxGeometry relative="1" as="geometry" />
        </mxCell>
        <mxCell id="H4zYBng8b11THzJkt93y-1805" style="edgeStyle=orthogonalEdgeStyle;rounded=0;orthogonalLoop=1;jettySize=auto;html=1;exitX=0;exitY=0.5;exitDx=0;exitDy=0;exitPerimeter=0;entryX=1;entryY=0.5;entryDx=0;entryDy=0;" edge="1" parent="1" source="H4zYBng8b11THzJkt93y-1783" target="H4zYBng8b11THzJkt93y-1804">
          <mxGeometry relative="1" as="geometry" />
        </mxCell>
        <mxCell id="H4zYBng8b11THzJkt93y-1783" value="master5" style="shape=cylinder3;whiteSpace=wrap;html=1;boundedLbl=1;backgroundOutline=1;size=15;" vertex="1" parent="1">
          <mxGeometry x="110" y="660" width="60" height="80" as="geometry" />
        </mxCell>
        <mxCell id="H4zYBng8b11THzJkt93y-1784" value="slave" style="shape=cylinder3;whiteSpace=wrap;html=1;boundedLbl=1;backgroundOutline=1;size=15;" vertex="1" parent="1">
          <mxGeometry x="250" y="180" width="60" height="80" as="geometry" />
        </mxCell>
        <mxCell id="H4zYBng8b11THzJkt93y-1787" value="slave" style="shape=cylinder3;whiteSpace=wrap;html=1;boundedLbl=1;backgroundOutline=1;size=15;" vertex="1" parent="1">
          <mxGeometry x="250" y="310" width="60" height="80" as="geometry" />
        </mxCell>
        <mxCell id="H4zYBng8b11THzJkt93y-1791" value="slave" style="shape=cylinder3;whiteSpace=wrap;html=1;boundedLbl=1;backgroundOutline=1;size=15;" vertex="1" parent="1">
          <mxGeometry x="250" y="430" width="60" height="80" as="geometry" />
        </mxCell>
        <mxCell id="H4zYBng8b11THzJkt93y-1794" value="slave" style="shape=cylinder3;whiteSpace=wrap;html=1;boundedLbl=1;backgroundOutline=1;size=15;" vertex="1" parent="1">
          <mxGeometry x="250" y="550" width="60" height="80" as="geometry" />
        </mxCell>
        <mxCell id="H4zYBng8b11THzJkt93y-1797" value="slave" style="shape=cylinder3;whiteSpace=wrap;html=1;boundedLbl=1;backgroundOutline=1;size=15;" vertex="1" parent="1">
          <mxGeometry x="250" y="660" width="60" height="80" as="geometry" />
        </mxCell>
        <mxCell id="H4zYBng8b11THzJkt93y-1799" value="master1、2、4、5&lt;br&gt;槽位：6000-9000" style="shape=document;whiteSpace=wrap;html=1;boundedLbl=1;" vertex="1" parent="1">
          <mxGeometry x="-80" y="430" width="120" height="80" as="geometry" />
        </mxCell>
        <mxCell id="H4zYBng8b11THzJkt93y-1801" value="master2、3、4、5&lt;br&gt;槽位：1-3000" style="shape=document;whiteSpace=wrap;html=1;boundedLbl=1;" vertex="1" parent="1">
          <mxGeometry x="-80" y="180" width="120" height="80" as="geometry" />
        </mxCell>
        <mxCell id="H4zYBng8b11THzJkt93y-1802" value="master1、2、3、5&lt;br&gt;槽位：9000-12000" style="shape=document;whiteSpace=wrap;html=1;boundedLbl=1;" vertex="1" parent="1">
          <mxGeometry x="-80" y="560" width="120" height="80" as="geometry" />
        </mxCell>
        <mxCell id="H4zYBng8b11THzJkt93y-1803" value="master1、3、4、5&lt;br&gt;槽位：3000-6000" style="shape=document;whiteSpace=wrap;html=1;boundedLbl=1;" vertex="1" parent="1">
          <mxGeometry x="-80" y="320" width="120" height="80" as="geometry" />
        </mxCell>
        <mxCell id="H4zYBng8b11THzJkt93y-1804" value="master1、2、3、4&lt;br&gt;槽位：12000-16384" style="shape=document;whiteSpace=wrap;html=1;boundedLbl=1;" vertex="1" parent="1">
          <mxGeometry x="-80" y="660" width="120" height="80" as="geometry" />
        </mxCell>
        <mxCell id="H4zYBng8b11THzJkt93y-1809" value="节点A" style="shape=umlLifeline;perimeter=lifelinePerimeter;whiteSpace=wrap;html=1;container=1;dropTarget=0;collapsible=0;recursiveResize=0;outlineConnect=0;portConstraint=eastwest;newEdgeStyle={&quot;edgeStyle&quot;:&quot;elbowEdgeStyle&quot;,&quot;elbow&quot;:&quot;vertical&quot;,&quot;curved&quot;:0,&quot;rounded&quot;:0};" vertex="1" parent="1">
          <mxGeometry x="570" y="130" width="70" height="1060" as="geometry" />
        </mxCell>
        <mxCell id="H4zYBng8b11THzJkt93y-1825" value="" style="html=1;points=[];perimeter=orthogonalPerimeter;outlineConnect=0;targetShapes=umlLifeline;portConstraint=eastwest;newEdgeStyle={&quot;edgeStyle&quot;:&quot;elbowEdgeStyle&quot;,&quot;elbow&quot;:&quot;vertical&quot;,&quot;curved&quot;:0,&quot;rounded&quot;:0};" vertex="1" parent="H4zYBng8b11THzJkt93y-1809">
          <mxGeometry x="30" y="340" width="10" height="520" as="geometry" />
        </mxCell>
        <mxCell id="H4zYBng8b11THzJkt93y-1811" value="" style="endArrow=classic;html=1;rounded=0;" edge="1" parent="1" target="H4zYBng8b11THzJkt93y-1809">
          <mxGeometry width="50" height="50" relative="1" as="geometry">
            <mxPoint x="490" y="260" as="sourcePoint" />
            <mxPoint x="540" y="210" as="targetPoint" />
          </mxGeometry>
        </mxCell>
        <mxCell id="H4zYBng8b11THzJkt93y-1812" value="CLUSTER MEET命令&lt;br&gt;新建节点B" style="edgeLabel;html=1;align=center;verticalAlign=middle;resizable=0;points=[];" vertex="1" connectable="0" parent="H4zYBng8b11THzJkt93y-1811">
          <mxGeometry x="-0.4142" y="1" relative="1" as="geometry">
            <mxPoint as="offset" />
          </mxGeometry>
        </mxCell>
        <mxCell id="H4zYBng8b11THzJkt93y-1813" value="" style="group" vertex="1" connectable="0" parent="1">
          <mxGeometry x="600" y="290" width="45" height="150" as="geometry" />
        </mxCell>
        <mxCell id="H4zYBng8b11THzJkt93y-1814" value="" style="html=1;points=[];perimeter=orthogonalPerimeter;outlineConnect=0;targetShapes=umlLifeline;portConstraint=eastwest;newEdgeStyle={&quot;edgeStyle&quot;:&quot;elbowEdgeStyle&quot;,&quot;elbow&quot;:&quot;vertical&quot;,&quot;curved&quot;:0,&quot;rounded&quot;:0};" vertex="1" parent="H4zYBng8b11THzJkt93y-1813">
          <mxGeometry width="10" height="150" as="geometry" />
        </mxCell>
        <mxCell id="H4zYBng8b11THzJkt93y-1815" value="" style="endArrow=classic;html=1;rounded=0;edgeStyle=orthogonalEdgeStyle;" edge="1" parent="H4zYBng8b11THzJkt93y-1813" source="H4zYBng8b11THzJkt93y-1814" target="H4zYBng8b11THzJkt93y-1814">
          <mxGeometry width="50" height="50" relative="1" as="geometry">
            <mxPoint x="15" y="54.54545454545454" as="sourcePoint" />
            <mxPoint x="15" y="122.72727272727272" as="targetPoint" />
            <Array as="points">
              <mxPoint x="35" y="20" />
              <mxPoint x="35" y="70" />
            </Array>
          </mxGeometry>
        </mxCell>
        <mxCell id="H4zYBng8b11THzJkt93y-1816" value="创建&lt;br&gt;cluster node" style="edgeLabel;html=1;align=center;verticalAlign=middle;resizable=0;points=[];" vertex="1" connectable="0" parent="H4zYBng8b11THzJkt93y-1815">
          <mxGeometry x="-0.68" relative="1" as="geometry">
            <mxPoint x="20" y="20" as="offset" />
          </mxGeometry>
        </mxCell>
        <mxCell id="H4zYBng8b11THzJkt93y-1820" value="" style="endArrow=classic;html=1;rounded=0;edgeStyle=orthogonalEdgeStyle;" edge="1" parent="H4zYBng8b11THzJkt93y-1813">
          <mxGeometry width="50" height="50" relative="1" as="geometry">
            <mxPoint x="10" y="90" as="sourcePoint" />
            <mxPoint x="10" y="140" as="targetPoint" />
            <Array as="points">
              <mxPoint x="35" y="90" />
              <mxPoint x="35" y="140" />
            </Array>
          </mxGeometry>
        </mxCell>
        <mxCell id="H4zYBng8b11THzJkt93y-1821" value="将此结构&lt;br&gt;添加到字典" style="edgeLabel;html=1;align=center;verticalAlign=middle;resizable=0;points=[];" vertex="1" connectable="0" parent="H4zYBng8b11THzJkt93y-1820">
          <mxGeometry x="-0.68" relative="1" as="geometry">
            <mxPoint x="20" y="20" as="offset" />
          </mxGeometry>
        </mxCell>
        <mxCell id="H4zYBng8b11THzJkt93y-1822" value="节点B" style="shape=umlLifeline;perimeter=lifelinePerimeter;whiteSpace=wrap;html=1;container=1;dropTarget=0;collapsible=0;recursiveResize=0;outlineConnect=0;portConstraint=eastwest;newEdgeStyle={&quot;edgeStyle&quot;:&quot;elbowEdgeStyle&quot;,&quot;elbow&quot;:&quot;vertical&quot;,&quot;curved&quot;:0,&quot;rounded&quot;:0};" vertex="1" parent="1">
          <mxGeometry x="770" y="130" width="90" height="1060" as="geometry" />
        </mxCell>
        <mxCell id="H4zYBng8b11THzJkt93y-1823" value="" style="html=1;points=[];perimeter=orthogonalPerimeter;outlineConnect=0;targetShapes=umlLifeline;portConstraint=eastwest;newEdgeStyle={&quot;edgeStyle&quot;:&quot;elbowEdgeStyle&quot;,&quot;elbow&quot;:&quot;vertical&quot;,&quot;curved&quot;:0,&quot;rounded&quot;:0};" vertex="1" parent="H4zYBng8b11THzJkt93y-1822">
          <mxGeometry x="40" y="350" width="10" height="400" as="geometry" />
        </mxCell>
        <mxCell id="H4zYBng8b11THzJkt93y-1827" value="" style="endArrow=classic;html=1;rounded=0;edgeStyle=orthogonalEdgeStyle;" edge="1" parent="H4zYBng8b11THzJkt93y-1822" source="H4zYBng8b11THzJkt93y-1823" target="H4zYBng8b11THzJkt93y-1823">
          <mxGeometry width="50" height="50" relative="1" as="geometry">
            <mxPoint x="50" y="390" as="sourcePoint" />
            <mxPoint x="70" y="430" as="targetPoint" />
            <Array as="points">
              <mxPoint x="70" y="390" />
              <mxPoint x="70" y="450" />
            </Array>
          </mxGeometry>
        </mxCell>
        <mxCell id="H4zYBng8b11THzJkt93y-1828" value="为A创建&lt;br&gt;cluster node&lt;br&gt;&amp;nbsp;结构，并加入&lt;br&gt;到自己的字典" style="edgeLabel;html=1;align=center;verticalAlign=middle;resizable=0;points=[];" vertex="1" connectable="0" parent="H4zYBng8b11THzJkt93y-1827">
          <mxGeometry x="-0.262" relative="1" as="geometry">
            <mxPoint x="20" y="14" as="offset" />
          </mxGeometry>
        </mxCell>
        <mxCell id="H4zYBng8b11THzJkt93y-1844" value="" style="html=1;points=[];perimeter=orthogonalPerimeter;outlineConnect=0;targetShapes=umlLifeline;portConstraint=eastwest;newEdgeStyle={&quot;edgeStyle&quot;:&quot;elbowEdgeStyle&quot;,&quot;elbow&quot;:&quot;vertical&quot;,&quot;curved&quot;:0,&quot;rounded&quot;:0};" vertex="1" parent="H4zYBng8b11THzJkt93y-1822">
          <mxGeometry x="40" y="930" width="10" height="80" as="geometry" />
        </mxCell>
        <mxCell id="H4zYBng8b11THzJkt93y-1824" value="" style="endArrow=classic;html=1;rounded=0;" edge="1" parent="1" target="H4zYBng8b11THzJkt93y-1823">
          <mxGeometry width="50" height="50" relative="1" as="geometry">
            <mxPoint x="610" y="499.9999999999999" as="sourcePoint" />
            <mxPoint x="815" y="499.9999999999999" as="targetPoint" />
          </mxGeometry>
        </mxCell>
        <mxCell id="H4zYBng8b11THzJkt93y-1826" value="根据命令给定的&lt;br&gt;ip地址和端口号&lt;br&gt;向节点B发送MEET消息" style="edgeLabel;html=1;align=center;verticalAlign=middle;resizable=0;points=[];" vertex="1" connectable="0" parent="H4zYBng8b11THzJkt93y-1824">
          <mxGeometry x="-0.6615" y="2" relative="1" as="geometry">
            <mxPoint x="52" as="offset" />
          </mxGeometry>
        </mxCell>
        <mxCell id="H4zYBng8b11THzJkt93y-1829" value="" style="endArrow=classic;html=1;rounded=0;dashed=1;" edge="1" parent="1">
          <mxGeometry width="50" height="50" relative="1" as="geometry">
            <mxPoint x="810" y="620" as="sourcePoint" />
            <mxPoint x="610" y="620" as="targetPoint" />
          </mxGeometry>
        </mxCell>
        <mxCell id="H4zYBng8b11THzJkt93y-1830" value="发送PONG消息" style="edgeLabel;html=1;align=center;verticalAlign=middle;resizable=0;points=[];" vertex="1" connectable="0" parent="H4zYBng8b11THzJkt93y-1829">
          <mxGeometry x="0.17" y="1" relative="1" as="geometry">
            <mxPoint as="offset" />
          </mxGeometry>
        </mxCell>
        <mxCell id="H4zYBng8b11THzJkt93y-1831" value="" style="endArrow=classic;html=1;rounded=0;edgeStyle=orthogonalEdgeStyle;" edge="1" parent="1" target="H4zYBng8b11THzJkt93y-1825">
          <mxGeometry width="50" height="50" relative="1" as="geometry">
            <mxPoint x="610" y="690" as="sourcePoint" />
            <mxPoint x="650" y="750" as="targetPoint" />
            <Array as="points">
              <mxPoint x="650" y="690" />
              <mxPoint x="650" y="740" />
            </Array>
          </mxGeometry>
        </mxCell>
        <mxCell id="H4zYBng8b11THzJkt93y-1832" value="接收到B的PONG&lt;br&gt;知道B成功接收&lt;br&gt;自己的MEET消息" style="edgeLabel;html=1;align=center;verticalAlign=middle;resizable=0;points=[];" vertex="1" connectable="0" parent="H4zYBng8b11THzJkt93y-1831">
          <mxGeometry x="-0.2154" relative="1" as="geometry">
            <mxPoint x="20" y="9" as="offset" />
          </mxGeometry>
        </mxCell>
        <mxCell id="H4zYBng8b11THzJkt93y-1833" value="" style="endArrow=classic;html=1;rounded=0;" edge="1" parent="1" source="H4zYBng8b11THzJkt93y-1825" target="H4zYBng8b11THzJkt93y-1823">
          <mxGeometry width="50" height="50" relative="1" as="geometry">
            <mxPoint x="630" y="800" as="sourcePoint" />
            <mxPoint x="680" y="750" as="targetPoint" />
            <Array as="points">
              <mxPoint x="710" y="790" />
            </Array>
          </mxGeometry>
        </mxCell>
        <mxCell id="H4zYBng8b11THzJkt93y-1834" value="发送PING" style="edgeLabel;html=1;align=center;verticalAlign=middle;resizable=0;points=[];" vertex="1" connectable="0" parent="H4zYBng8b11THzJkt93y-1833">
          <mxGeometry x="-0.32" relative="1" as="geometry">
            <mxPoint as="offset" />
          </mxGeometry>
        </mxCell>
        <mxCell id="H4zYBng8b11THzJkt93y-1836" value="" style="endArrow=classic;html=1;rounded=0;edgeStyle=orthogonalEdgeStyle;" edge="1" parent="1" target="H4zYBng8b11THzJkt93y-1823">
          <mxGeometry width="50" height="50" relative="1" as="geometry">
            <mxPoint x="820" y="810" as="sourcePoint" />
            <mxPoint x="880" y="810" as="targetPoint" />
            <Array as="points">
              <mxPoint x="820" y="800" />
              <mxPoint x="870" y="800" />
              <mxPoint x="870" y="850" />
            </Array>
          </mxGeometry>
        </mxCell>
        <mxCell id="H4zYBng8b11THzJkt93y-1837" value="A已接收到PONG&lt;br&gt;握手完成" style="edgeLabel;html=1;align=center;verticalAlign=middle;resizable=0;points=[];" vertex="1" connectable="0" parent="H4zYBng8b11THzJkt93y-1836">
          <mxGeometry x="-0.125" relative="1" as="geometry">
            <mxPoint y="10" as="offset" />
          </mxGeometry>
        </mxCell>
        <mxCell id="H4zYBng8b11THzJkt93y-1838" value="其它节点" style="shape=umlLifeline;perimeter=lifelinePerimeter;whiteSpace=wrap;html=1;container=1;dropTarget=0;collapsible=0;recursiveResize=0;outlineConnect=0;portConstraint=eastwest;newEdgeStyle={&quot;edgeStyle&quot;:&quot;elbowEdgeStyle&quot;,&quot;elbow&quot;:&quot;vertical&quot;,&quot;curved&quot;:0,&quot;rounded&quot;:0};" vertex="1" parent="1">
          <mxGeometry x="1000" y="60" width="90" height="1130" as="geometry" />
        </mxCell>
        <mxCell id="H4zYBng8b11THzJkt93y-1841" value="" style="html=1;points=[];perimeter=orthogonalPerimeter;outlineConnect=0;targetShapes=umlLifeline;portConstraint=eastwest;newEdgeStyle={&quot;edgeStyle&quot;:&quot;elbowEdgeStyle&quot;,&quot;elbow&quot;:&quot;vertical&quot;,&quot;curved&quot;:0,&quot;rounded&quot;:0};" vertex="1" parent="H4zYBng8b11THzJkt93y-1838">
          <mxGeometry x="40" y="880" width="10" height="180" as="geometry" />
        </mxCell>
        <mxCell id="H4zYBng8b11THzJkt93y-1839" value="" style="endArrow=classic;html=1;rounded=0;edgeStyle=orthogonalEdgeStyle;" edge="1" parent="1" target="H4zYBng8b11THzJkt93y-1825">
          <mxGeometry width="50" height="50" relative="1" as="geometry">
            <mxPoint x="610" y="827" as="sourcePoint" />
            <mxPoint x="670" y="827" as="targetPoint" />
            <Array as="points">
              <mxPoint x="610" y="817" />
              <mxPoint x="650" y="817" />
              <mxPoint x="650" y="850" />
            </Array>
          </mxGeometry>
        </mxCell>
        <mxCell id="H4zYBng8b11THzJkt93y-1840" value="与B握手完成" style="edgeLabel;html=1;align=center;verticalAlign=middle;resizable=0;points=[];" vertex="1" connectable="0" parent="H4zYBng8b11THzJkt93y-1839">
          <mxGeometry x="-0.1057" y="2" relative="1" as="geometry">
            <mxPoint y="8" as="offset" />
          </mxGeometry>
        </mxCell>
        <mxCell id="H4zYBng8b11THzJkt93y-1842" value="" style="endArrow=classic;html=1;rounded=0;" edge="1" parent="1" source="H4zYBng8b11THzJkt93y-1825" target="H4zYBng8b11THzJkt93y-1841">
          <mxGeometry width="50" height="50" relative="1" as="geometry">
            <mxPoint x="740" y="970" as="sourcePoint" />
            <mxPoint x="1040" y="970" as="targetPoint" />
          </mxGeometry>
        </mxCell>
        <mxCell id="H4zYBng8b11THzJkt93y-1843" value="将B节点信息&lt;br&gt;通过gossip协议传播" style="edgeLabel;html=1;align=center;verticalAlign=middle;resizable=0;points=[];" vertex="1" connectable="0" parent="H4zYBng8b11THzJkt93y-1842">
          <mxGeometry x="-0.5023" y="-1" relative="1" as="geometry">
            <mxPoint as="offset" />
          </mxGeometry>
        </mxCell>
        <mxCell id="H4zYBng8b11THzJkt93y-1845" value="" style="endArrow=classic;html=1;rounded=0;" edge="1" parent="1" source="H4zYBng8b11THzJkt93y-1841" target="H4zYBng8b11THzJkt93y-1844">
          <mxGeometry width="50" height="50" relative="1" as="geometry">
            <mxPoint x="950" y="1110" as="sourcePoint" />
            <mxPoint x="1000" y="1060" as="targetPoint" />
          </mxGeometry>
        </mxCell>
        <mxCell id="H4zYBng8b11THzJkt93y-1846" value="握手" style="edgeLabel;html=1;align=center;verticalAlign=middle;resizable=0;points=[];" vertex="1" connectable="0" parent="H4zYBng8b11THzJkt93y-1845">
          <mxGeometry x="0.4455" y="2" relative="1" as="geometry">
            <mxPoint as="offset" />
          </mxGeometry>
        </mxCell>
        <mxCell id="H4zYBng8b11THzJkt93y-1847" value="过一段时间后，B节点被集群中所有节点认识" style="text;html=1;strokeColor=none;fillColor=none;align=center;verticalAlign=middle;whiteSpace=wrap;rounded=0;" vertex="1" parent="1">
          <mxGeometry x="850" y="1110" width="140" height="40" as="geometry" />
        </mxCell>
      </root>
    </mxGraphModel>
  </diagram>
</mxfile>
